<svg xmlns="http://www.w3.org/2000/svg" width="88" height="95" viewBox="0 0 88 95">
  <g fill="#AAAAAA" fill-rule="evenodd">
    <path d="M65.0346687,38.2529481 C64.6094683,37.177115 63.3926532,36.6502966 62.3164732,37.0751501 C61.2406401,37.5005239 60.7134749,38.7175124 61.1386752,39.7933456 C62.2032367,42.4855296 62.742714,45.3308343 62.742714,48.2505317 C62.742714,60.9337097 52.4243227,71.2524478 39.7407979,71.2524478 C27.056406,71.2524478 16.7366274,60.9337097 16.7366274,48.2505317 C16.7366274,35.5673537 27.056406,25.2486155 39.7407979,25.2486155 C42.6707264,25.2486155 45.5208866,25.791561 48.2122035,26.8623652 C49.2868228,27.2905135 50.5050253,26.7652559 50.9328267,25.6906366 C51.3606282,24.6156705 50.8358908,23.3976415 49.7610981,22.9700134 C46.5748701,21.7020424 43.2034407,21.059213 39.7409713,21.059213 C24.7465901,21.059213 12.5473983,33.2570176 12.5473983,48.2503583 C12.5473983,63.2436989 24.7460699,75.4416769 39.7407979,75.4416769 C54.7339651,75.4416769 66.9319431,63.2438723 66.9319431,48.2505317 C66.9319431,44.8012414 66.2934489,41.4377888 65.0346687,38.2529481 Z"/>
    <path d="M66.4259785,71.7140275 C71.9406394,65.4488511 75.2894187,57.2332209 75.2894187,48.2501848 C75.2894187,44.9203737 74.8290162,41.62247 73.9210435,38.4487275 C73.6028369,37.3366518 74.2463599,36.1770618 75.3586091,35.8586818 C76.4715519,35.5411688 77.6304482,36.1839982 77.9486549,37.2962473 C78.9639681,40.8449014 79.4788211,44.5303756 79.4788211,48.2503583 C79.4788211,57.9180067 76.0091019,66.7904212 70.2496327,73.6875878 C69.0962019,72.8450047 67.8090522,72.1745529 66.4259785,71.7140275 Z M48.1732691,82.7911121 C45.4692856,83.4514259 42.6450741,83.8015802 39.7406244,83.8015802 C20.1377098,83.8015802 4.18940248,67.8532729 4.18940248,48.2501848 C4.18940248,28.6470968 20.1375364,12.6991363 39.7406244,12.6991363 C43.0780656,12.6991363 46.3815184,13.1616197 49.5587291,14.0739276 C50.6708048,14.3930013 51.830915,13.7506921 52.1499887,12.6386164 C52.4692358,11.5265406 51.8267532,10.3664304 50.7146775,10.0473567 C47.1616882,9.02701465 43.4692776,8.50956041 39.7406244,8.50956041 C17.8275472,8.50973382 0,26.337281 0,48.2503583 C0,70.1634355 17.8275472,87.9911561 39.7406244,87.9911561 C42.6269818,87.9911561 45.4424533,87.6818133 48.15563,87.0945376 C48.0531262,86.4112658 48,85.711837 48,85 C48,84.2483999 48.0592272,83.5106331 48.1732691,82.7911121 Z"/>
    <path d="M54.3254121,46.9714625 C54.2227536,45.8191557 53.2046659,44.9729169 52.0528793,45.0712401 C50.9005725,45.174072 50.0496516,46.1916395 50.1526569,47.3439463 C50.1791886,47.6422108 50.1927146,47.9472383 50.1927146,48.2505317 C50.1927146,54.0141465 45.503719,58.7027952 39.740451,58.7027952 C33.9756223,58.7027952 29.2855864,54.0137997 29.2855864,48.2505317 C29.2859332,42.4855296 33.9757958,37.795667 39.7406244,37.795667 C40.0626461,37.795667 40.3779047,37.8097132 40.6780767,37.8372853 C41.8310771,37.9430652 42.8500319,37.0957859 42.956332,35.9436525 C43.0624587,34.7916925 42.2146592,33.7718707 41.0626992,33.6653972 C40.635418,33.6260332 40.1906223,33.6060911 39.7407979,33.6060911 C31.6659799,33.6060911 25.0965307,40.1751935 25.0965307,48.2501848 C25.0965307,56.3237889 31.6659799,62.8918509 39.7407979,62.8918509 C47.8142285,62.8918509 54.3824639,56.3237889 54.3824639,48.2501848 C54.3822905,47.8234238 54.3632154,47.3928478 54.3254121,46.9714625 Z"/>
    <path d="M74.1425781 13.8681641L70.1374195.452603655 57.9335456 12.6566509C56.7470771 13.842946 56.0938432 15.4206265 56.0938432 17.099058L56.0938432 28.9524711 39.0702229 45.9760914C38.2522499 46.7940645 38.2522499 48.1204745 39.0702229 48.938621 39.4791228 49.3475208 40.0153052 49.5521441 40.5513143 49.5521441 41.0873234 49.5521441 41.6235059 49.3475208 42.0324057 48.938621L59.0561994 31.9148273 70.9096124 31.9148273C72.5880439 31.9148273 74.1658979 31.2614199 75.3520195 30.0752983L87.5560668 17.8709042 74.1425781 13.8681641zM60.8960752 15.6190071L67.9729178 7.71979632 70.2648403 15.341762 60.2830723 24.7634155 60.2830723 17.0988846C60.2834191 16.5396387 60.5010481 16.0138608 60.8960752 15.6190071zM72.3898368 27.1127687C72.0007056 27.5018998 71.461055 27.7254248 70.9097859 27.7254248L63.2457753 27.7254248 73.0165667 18.2091588 79.9230259 19.9553397 72.3898368 27.1127687zM64 75.2002C63.3538 75.069 62.685 75 62 75 61.315 75 60.6462 75.069 60 75.2002 56.0818 75.9956 52.9956 79.0818 52.2002 83 52.069 83.6462 52 84.315 52 85 52 85.685 52.069 86.3538 52.2002 87 53.1268 91.5645 57.1621 95 62 95 67.5229 95 72 90.5228 72 85 72 80.1621 68.5645 76.1268 64 75.2002zM68 86L64 86 63 86 63 87 63 91 61 91 61 87 61 86 56 86 56 84 61 84 61 79 63 79 63 84 64 84 68 84 68 86z"/>
  </g>
</svg>
