<svg xmlns="http://www.w3.org/2000/svg" width="80" height="91" viewBox="0 0 80 91" xmlns:xlink="http://www.w3.org/1999/xlink">
  <defs>
    <path id="b" d="M70.5029838,65.8772752 C76.4265133,58.9017786 80,49.8682056 80,40 C80,17.90861 62.09139,0 40,0 C17.90861,0 0,17.90861 0,40 C0,62.09139 17.90861,80 40,80 C42.7986546,80 45.5301792,79.7125817 48.1666662,79.1656524 C48.0569935,78.4598563 48,77.7366187 48,77 C48,76.041 48.0966,75.10468 48.28028,74.2 C49.39384,68.71452 53.71452,64.39384 59.2,63.28028 C60.10468,63.0966 61.041,63 62,63 C62.959,63 63.89532,63.0966 64.8,63.28028 C66.9126434,63.7091496 68.8525313,64.6137013 70.5029838,65.8772752 Z"/>
    <path id="a" d="M64,67.2002 C68.5645,68.1268 72,72.1621 72,77 C72,82.5228 67.5229,87 62,87 C57.1621,87 53.1268,83.5645 52.2002,79 C52.069,78.3538 52,77.685 52,77 C52,76.315 52.069,75.6462 52.2002,75 C52.9956,71.0818 56.0818,67.9956 60,67.2002 C60.6462,67.069 61.315,67 62,67 C62.685,67 63.3538,67.069 64,67.2002 Z M68,78 L68,76 L64,76 L63,76 L63,71 L61,71 L61,76 L56,76 L56,78 L61,78 L61,79 L61,83 L63,83 L63,79 L63,78 L64,78 L68,78 Z"/>
    <mask id="d" width="28" height="28" x="-4" y="-4">
      <rect width="28" height="28" x="48" y="63" fill="white"/>
      <use fill="black" xlink:href="#a"/>
    </mask>
  </defs>
  <g fill="none" fill-rule="evenodd">
    <mask id="c" fill="white">
      <use xlink:href="#b"/>
    </mask>
    <use fill="#F8F8F8" xlink:href="#b"/>
    <path fill="#AAAAAA" d="M39.9453124,79.9898437 C17.455664,79.9898437 7.6984374,62.990625 7.6984374,62.990625 C7.6984374,62.990625 13.0506356,59.5990643 18.9152343,57.1175781 C23.327308,55.2506985 28.3673732,54.2477665 29.75396,53.6483405 C29.75396,53.6483405 30.09114,52.0267234 29.9697,51.0611323 L32.49556,51.0611323 C32.49556,51.0611323 33.0724,51.3900452 32.49556,47.5789751 C32.49556,47.5789751 29.41678,46.7798652 29.27326,40.7095999 C29.27326,40.7095999 26.96084,41.471364 26.81962,37.7925789 C26.72302,35.2985102 24.75054,33.1338043 27.5892,31.346156 L26.14618,27.5350858 C26.14618,27.5350858 23.26014,12.1490712 31.55762,14.4078164 C28.05748,10.3141781 51.40018,6.22143973 52.91634,19.2074251 C52.91634,19.2074251 53.99734,26.2185343 52.91634,31.0172431 C52.91634,31.0172431 56.3254,30.6316366 54.0461,37.0407137 C54.0461,37.0407137 52.79582,41.6517936 50.87118,40.6164604 C50.87118,40.6164604 51.18536,46.4509523 48.15442,47.4399408 C48.15442,47.4399408 48.1544188,51.0618982 48.1544188,51.1799194 L51.25758,51.1799189 C51.25758,51.1799189 51.2575805,51.7863281 51.2575805,52.7183594 C51.2575805,53.6503906 51.7013671,53.9292969 51.7013671,53.9292969 C51.7013671,53.9292969 57.5796874,55.0105469 62.1777343,56.6953125 C66.7757812,58.3800781 72.7498046,62.3455078 72.7498046,62.3455078 C72.7498046,62.3455078 62.4349608,79.9898437 39.9453124,79.9898437 Z" mask="url(#c)"/>
    <g>
      <use fill="#AAAAAA" xlink:href="#a"/>
      <use stroke="#FFFFFF" stroke-width="8" mask="url(#d)" xlink:href="#a"/>
    </g>
  </g>
</svg>
